<svg width="78" height="29" viewBox="0 0 78 29" fill="none" xmlns="http://www.w3.org/2000/svg">
<path d="M12.0682 9.90909C11.983 8.71591 11.5256 7.7358 10.696 6.96875C9.87216 6.2017 8.78409 5.81818 7.43182 5.81818C6.54545 5.81818 5.75284 5.98864 5.05398 6.32954C4.35511 6.67045 3.80398 7.1392 3.40057 7.73579C2.99716 8.3267 2.79545 9.00568 2.79545 9.77273C2.79545 10.2159 2.86932 10.625 3.01705 11C3.16477 11.375 3.3892 11.7188 3.69034 12.0312C3.99716 12.3381 4.38068 12.6165 4.84091 12.8665C5.30682 13.1108 5.85227 13.3295 6.47727 13.5227L8.45455 14.1364C9.21023 14.3693 9.86364 14.6307 10.4148 14.9205C10.9659 15.2102 11.4205 15.5369 11.7784 15.9006C12.142 16.2585 12.4119 16.6591 12.5881 17.1023C12.7642 17.5398 12.8523 18.0284 12.8523 18.5682C12.8523 19.4773 12.6193 20.2869 12.1534 20.9972C11.6875 21.7074 11.0369 22.2642 10.2017 22.6676C9.36648 23.071 8.39773 23.2727 7.29545 23.2727C6.23295 23.2727 5.30398 23.0881 4.50852 22.7188C3.71307 22.3438 3.08239 21.8295 2.61648 21.1761C2.15625 20.517 1.89773 19.7614 1.84091 18.9091H2.38636C2.44318 19.6591 2.67898 20.321 3.09375 20.8949C3.50852 21.4687 4.07102 21.9176 4.78125 22.2415C5.49716 22.5653 6.33523 22.7273 7.29545 22.7273C8.29545 22.7273 9.17045 22.554 9.92045 22.2074C10.6761 21.8551 11.2614 21.3665 11.6761 20.7415C12.0966 20.1165 12.3068 19.392 12.3068 18.5682C12.3068 17.9432 12.1705 17.3949 11.8977 16.9233C11.625 16.446 11.196 16.0256 10.6108 15.6619C10.0256 15.2983 9.26136 14.9716 8.31818 14.6818L6.34091 14.0682C4.97159 13.6364 3.94602 13.0653 3.2642 12.3551C2.58807 11.6449 2.25 10.7841 2.25 9.77273C2.25 8.91477 2.47443 8.14773 2.9233 7.47159C3.37216 6.78977 3.9858 6.25284 4.7642 5.86079C5.5483 5.46875 6.4375 5.27273 7.43182 5.27273C8.43182 5.27273 9.30966 5.47159 10.0653 5.86932C10.821 6.26704 11.4205 6.81534 11.8636 7.5142C12.3068 8.21307 12.5568 9.01136 12.6136 9.90909H12.0682Z" fill="white"/>
<path d="M65.7492 23V5.54545H66.2947V22.4545H75.022V23H65.7492Z" fill="white"/>
<path fill-rule="evenodd" clip-rule="evenodd" d="M38.6693 13.7664H34.222C33.1974 13.7664 32.0955 13.2224 32.6089 11.3168C33.2427 8.96362 36.2761 7.37194 38.6693 7.37194C41.0625 7.37194 44.0959 8.96354 44.7297 11.3168C45.2434 13.2223 44.1412 13.7664 43.1166 13.7664H38.6693V13.7664ZM21.0829 13.9743C20.401 13.9699 19.7167 13.9567 19.0488 13.9567V14.9538H58.289V13.9564C57.6211 13.9564 56.9368 13.9696 56.2549 13.9739H55.5141C54.1716 13.9636 52.8633 13.8861 51.7286 13.5688C49.0084 12.8078 48.6918 11.3752 47.3223 9.33423C45.7265 6.95749 42.9958 4 38.6692 4C34.3427 4 31.6116 6.95685 30.0154 9.33487C28.6459 11.3752 28.3293 12.8079 25.6091 13.5695C24.4747 13.8868 23.1663 13.9642 21.8236 13.9746L21.0829 13.9743ZM44.6479 16.1419H47.3447C47.3447 18.0019 45.2766 24 38.669 24C32.0609 24 29.9934 18.0019 29.9934 16.1419H32.6901C32.6901 17.3093 34.1153 21.3454 38.6694 21.3454C43.2234 21.3454 44.6486 17.3093 44.6486 16.1419H44.6479Z" fill="white"/>
</svg>
