<svg width="264" height="87" viewBox="0 0 264 87" fill="none" xmlns="http://www.w3.org/2000/svg">
<path d="M27.408 0.599998C8.208 0.599998 0.528 11.096 0.528 25.432C0.528 37.464 5.904 50.392 28.944 50.392H49.04C59.664 50.392 62.608 55.512 62.608 61.144C62.608 67.416 58.896 71.896 50.704 71.896H2.064V87H50.192C69.904 87 77.712 76.248 77.712 61.656C77.712 49.24 72.208 36.184 48.656 36.184H28.432C18.32 36.184 15.632 31.192 15.632 25.944C15.632 19.928 19.088 15.704 26.896 15.704H71.184V0.599998H27.408ZM129.836 0.599998C104.748 0.599998 90.796 14.936 90.796 43.992C90.796 72.92 104.62 87 129.836 87H141.612C166.828 87 180.652 72.92 180.652 43.992C180.652 14.936 166.7 0.599998 141.612 0.599998H129.836ZM141.612 15.704C158.252 15.704 165.42 24.152 165.42 43.864C165.42 63.704 158.252 71.896 141.612 71.896H129.836C113.068 71.896 105.9 63.704 105.9 43.992C105.9 24.152 113.196 15.704 129.836 15.704H141.612ZM197.6 0.599998V57.176C197.6 74.456 206.56 87 229.472 87H263.904V71.896H230.368C216.8 71.896 212.704 65.368 212.704 57.048V0.599998H197.6Z" fill="white"/>
</svg>
